<?xml version="1.0" standalone="no"?>
<!DOCTYPE svg PUBLIC "-//W3C//DTD SVG 20010904//EN"
 "http://www.w3.org/TR/2001/REC-SVG-20010904/DTD/svg10.dtd">
<svg version="1.0" xmlns="http://www.w3.org/2000/svg"
 width="1280.000000pt" height="720.000000pt" viewBox="0 0 1280.000000 720.000000"
 preserveAspectRatio="xMidYMid meet">

<g transform="translate(0.000000,720.000000) scale(0.100000,-0.100000)"
fill="#000000" stroke="none">
<path d="M0 3600 l0 -3600 6400 0 6400 0 0 3600 0 3600 -6400 0 -6400 0 0
-3600z m9148 1013 c24 -4 36 -12 43 -32 6 -14 23 -39 38 -56 21 -22 32 -48 42
-100 7 -38 19 -80 26 -91 8 -13 11 -32 8 -47 -4 -14 -2 -28 4 -31 14 -9 14
-53 1 -61 -6 -4 2 -22 20 -43 19 -23 30 -48 30 -67 l-1 -30 -37 42 c-20 23
-51 48 -69 57 -51 25 -64 51 -47 91 7 18 17 58 22 90 9 53 7 60 -24 123 -19
37 -31 56 -28 42 4 -14 15 -42 25 -63 17 -32 18 -46 10 -97 -9 -55 -80 -239
-103 -267 -18 -22 -37 -15 -90 35 -39 35 -47 39 -31 17 75 -107 119 -109 164
-10 26 57 49 83 49 55 0 -5 15 -17 33 -26 17 -9 43 -26 55 -38 31 -28 92 -137
92 -165 0 -12 12 -50 26 -84 22 -52 25 -71 20 -117 -4 -30 -17 -73 -30 -95
-13 -23 -26 -65 -29 -98 -6 -62 -37 -125 -82 -167 -31 -29 -46 -62 -64 -138
-7 -28 -17 -54 -22 -57 -5 -3 -17 -25 -27 -48 -30 -66 -84 -120 -169 -169 -82
-48 -153 -116 -153 -146 1 -9 7 -28 15 -42 9 -16 14 -56 15 -114 0 -77 3 -93
21 -112 23 -25 20 -54 -6 -54 -9 0 -25 16 -37 37 -25 41 -37 28 -17 -19 11
-27 10 -32 -6 -44 -39 -29 -65 -13 -65 42 0 18 -5 24 -21 24 -19 0 -20 -4 -15
-34 6 -29 3 -37 -14 -46 -12 -6 -33 -10 -48 -8 -26 3 -27 5 -24 51 2 33 0 47
-7 42 -6 -3 -11 -13 -11 -20 0 -23 -45 -47 -74 -39 -31 7 -48 52 -25 65 47 26
92 83 119 150 17 40 36 80 44 88 7 9 18 35 24 58 7 23 31 68 53 100 22 32 61
90 87 128 65 99 169 203 211 211 39 8 38 6 49 114 6 59 19 108 41 158 l32 73
-21 62 c-15 44 -20 75 -16 107 4 31 3 39 -3 25 -15 -32 -12 -106 5 -152 16
-42 16 -43 -15 -110 -20 -42 -34 -91 -38 -130 -5 -58 -8 -62 -34 -68 -46 -10
-61 1 -115 83 -36 54 -53 93 -58 127 -9 56 -25 95 -60 142 l-24 33 -13 -31
c-7 -18 -34 -47 -61 -66 -26 -19 -48 -38 -48 -43 0 -4 -26 -11 -57 -15 -124
-15 -226 -100 -240 -200 -5 -40 -12 -50 -45 -72 -23 -16 -41 -36 -44 -52 -3
-14 -10 -36 -15 -49 -12 -31 -12 -114 1 -148 6 -15 8 -29 5 -33 -9 -8 -25 21
-25 46 0 26 -12 35 -33 27 -22 -8 -28 -30 -21 -76 6 -35 10 -39 29 -34 29 7
36 -1 23 -29 -15 -32 -34 -38 -64 -18 -35 23 -43 41 -50 122 -10 109 13 160
176 379 25 34 58 80 73 102 15 23 48 53 73 68 106 64 107 65 134 137 15 39 38
88 52 110 15 23 29 63 33 92 7 53 37 109 65 124 8 4 35 14 59 21 55 16 77 47
85 116 4 45 3 53 -10 48 -40 -15 -74 85 -39 114 20 16 45 5 45 -20 0 -11 5
-20 10 -20 6 0 10 17 10 39 0 37 3 40 53 64 44 22 55 33 67 69 16 43 25 48 65
33 l20 -8 -20 16 c-35 28 -54 21 -77 -29 -17 -39 -28 -50 -69 -67 -27 -12 -51
-29 -54 -38 -4 -10 -13 -15 -23 -12 -28 7 -62 -33 -62 -73 0 -26 8 -44 30 -66
60 -60 32 -136 -57 -156 -40 -9 -57 -2 -33 13 6 3 10 17 10 30 0 13 5 27 10
30 6 3 10 41 10 83 0 96 24 153 75 183 23 14 35 28 35 43 0 16 11 27 38 39 21
9 44 17 50 17 6 0 17 8 24 18 23 31 62 53 83 46 11 -3 35 -8 53 -11z m-7608
-53 c78 -21 314 -40 510 -40 192 0 209 2 275 25 79 28 156 33 174 11 10 -12 6
-18 -26 -35 -46 -24 -40 -26 18 -6 39 14 54 14 153 0 149 -20 185 -19 272 10
42 14 80 23 85 20 10 -7 13 -318 2 -328 -3 -4 -17 0 -30 8 -30 20 -141 34
-269 35 -94 0 -107 2 -159 30 -89 47 -91 45 -105 -82 -5 -49 -14 -87 -26 -104
-43 -60 -44 -67 -40 -181 3 -85 8 -119 21 -139 12 -19 15 -37 11 -64 -3 -23 0
-55 10 -84 9 -26 14 -59 11 -74 -3 -15 -8 -38 -11 -52 -3 -14 -8 -41 -11 -61
-5 -34 -11 -39 -67 -63 -71 -31 -73 -42 -3 -21 26 8 52 15 57 15 4 0 8 -27 8
-60 0 -47 6 -73 28 -113 26 -50 27 -58 28 -202 1 -147 1 -152 37 -248 20 -54
37 -109 37 -122 l0 -25 -307 0 c-271 0 -309 2 -325 17 -25 23 -23 40 12 80 26
29 30 42 30 89 0 59 17 111 43 133 14 11 17 35 17 152 l0 139 43 31 c43 32 41
33 -30 13 -20 -5 -26 1 -48 47 -23 50 -25 65 -25 204 0 83 4 166 9 185 10 46
44 81 109 114 28 14 52 29 52 32 0 3 -6 4 -12 1 -7 -3 -37 -14 -66 -26 l-53
-21 -14 35 c-17 40 -19 93 -5 130 7 18 5 42 -5 82 -22 83 -19 124 10 167 35
52 26 60 -54 51 -36 -5 -132 -9 -212 -9 -157 -1 -149 1 -244 -70 -7 -5 -24 -6
-38 -2 l-27 6 0 172 c0 145 3 174 17 190 18 20 76 24 133 8z m4433 -242 c43
-20 52 -20 96 -9 61 15 270 17 331 2 25 -6 86 -11 136 -11 61 0 96 -4 109 -14
19 -14 19 -15 1 -35 -18 -20 -18 -20 12 -9 27 10 35 8 78 -20 55 -35 98 -85
120 -139 13 -31 14 -51 4 -137 -7 -58 -20 -116 -31 -138 -27 -53 -113 -146
-171 -186 -53 -36 -54 -55 -5 -81 32 -17 45 -47 56 -127 10 -68 14 -77 67
-134 35 -37 58 -86 48 -101 -3 -5 -23 -19 -46 -30 -22 -11 -38 -23 -35 -25 3
-3 20 4 38 15 42 26 58 26 75 4 21 -28 16 -41 -23 -63 -37 -20 -31 -20 30 2
36 13 49 1 72 -69 9 -29 25 -63 35 -75 l18 -23 19 34 c19 34 72 120 129 206
18 28 42 71 53 96 11 25 36 72 56 104 26 43 35 70 35 102 0 37 4 45 24 53 16
6 38 34 62 80 26 50 45 75 63 81 14 5 35 14 46 19 18 9 17 10 -5 5 -14 -3 -35
-8 -47 -11 -33 -9 -30 18 7 60 17 19 39 59 49 90 11 30 31 72 45 93 29 43 33
75 11 93 -21 18 -19 30 12 62 25 26 26 30 11 44 -14 14 -19 14 -49 -2 -44 -23
-221 -26 -259 -5 -118 64 -121 158 -7 206 36 15 43 14 137 -10 l100 -25 50 19
c45 17 72 19 282 15 128 -2 240 -6 250 -10 41 -13 28 -103 -22 -154 -17 -17
-30 -42 -30 -55 0 -29 -53 -93 -84 -101 -19 -4 -21 -12 -21 -67 0 -57 -6 -74
-70 -200 -45 -91 -79 -146 -98 -159 -23 -16 -27 -25 -22 -48 5 -21 -7 -51 -50
-133 -52 -98 -59 -107 -98 -121 l-42 -15 38 5 c20 4 37 3 37 0 0 -4 -18 -42
-40 -86 -46 -91 -48 -109 -19 -136 19 -17 45 -20 276 -26 182 -6 260 -11 271
-20 8 -7 24 -33 35 -57 18 -41 18 -45 2 -88 -25 -64 -91 -81 -185 -48 -54 19
-144 19 -243 0 -115 -22 -214 -20 -284 7 -56 21 -72 22 -412 22 l-353 1 -40
45 c-85 95 -169 211 -184 252 -8 24 -14 64 -13 90 2 42 -2 52 -35 90 -21 24
-53 66 -70 93 -38 60 -72 71 -103 31 -17 -21 -19 -33 -12 -73 4 -26 3 -66 -1
-88 -5 -22 -10 -63 -11 -91 -2 -45 1 -56 29 -90 29 -34 32 -45 32 -102 0 -42
6 -74 17 -93 16 -27 16 -30 0 -46 -21 -22 -165 -29 -354 -18 l-121 7 -12 29
c-10 24 -9 36 10 82 19 46 21 61 13 114 -7 46 -6 70 4 93 9 23 14 102 16 277
l3 245 24 20 25 20 -29 -17 c-43 -25 -53 -7 -30 52 21 54 23 126 10 300 l-9
112 32 18 c79 44 70 46 -26 6 -7 -3 -13 1 -14 8 -3 45 -8 60 -33 89 -21 25
-24 35 -15 46 17 21 160 9 222 -18z m3945 -20 c12 -26 14 -27 77 -21 50 5 70
2 90 -11 31 -20 84 -135 78 -168 -4 -21 0 -25 39 -33 36 -8 46 -16 61 -47 11
-25 29 -43 52 -52 43 -18 56 -57 29 -88 -19 -21 -19 -21 3 -9 30 16 43 8 88
-54 40 -54 49 -75 60 -127 7 -36 211 -228 242 -228 25 0 31 45 25 206 l-5 162
29 16 29 16 -27 -6 -28 -6 7 110 c5 92 3 115 -10 135 -20 30 -50 145 -43 163
18 46 239 97 274 62 7 -7 12 -45 12 -99 0 -70 -4 -91 -20 -111 -18 -23 -18
-27 -3 -48 14 -20 16 -74 14 -483 -2 -361 -5 -468 -16 -496 -8 -20 -15 -86
-17 -148 -2 -62 -8 -117 -14 -123 -8 -8 -27 -6 -67 4 -66 17 -86 27 -111 55
-14 16 -31 21 -67 21 -26 0 -55 3 -64 6 -33 13 -297 309 -337 379 -46 79 -79
128 -176 264 -123 173 -127 168 -128 -167 0 -163 -5 -280 -13 -320 -15 -78 -9
-98 37 -120 27 -12 38 -24 40 -43 5 -44 -14 -50 -157 -47 l-130 3 -6 595 c-2
327 -8 615 -13 640 -4 25 -22 66 -39 90 -46 69 -49 85 -17 115 35 33 75 44
149 42 54 -2 61 -4 73 -29z m-6544 -7 c32 -14 57 -18 87 -14 39 6 44 4 80 -37
25 -27 39 -53 39 -70 0 -16 11 -37 30 -55 17 -16 30 -36 30 -46 0 -9 7 -33 15
-52 24 -58 19 -70 -42 -115 -68 -50 -64 -53 17 -12 l60 30 10 -25 c6 -15 10
-32 10 -40 0 -8 4 -16 9 -19 28 -18 91 -200 91 -265 0 -32 7 -53 25 -77 18
-23 25 -45 25 -76 0 -31 6 -48 20 -61 24 -20 26 -50 5 -67 -22 -19 -18 -28 10
-22 22 4 25 1 25 -24 0 -19 -9 -36 -27 -51 l-28 -23 29 10 c41 15 52 8 60 -40
3 -23 31 -91 62 -152 30 -60 54 -120 52 -131 -3 -21 -8 -22 -149 -23 -80 -1
-157 -4 -172 -8 -29 -7 -84 12 -104 35 -9 11 -7 23 7 54 27 55 25 71 -10 92
-31 18 -50 62 -50 117 0 16 -7 38 -17 48 -15 16 -36 18 -234 18 -140 0 -227
-4 -243 -11 -24 -11 -35 -35 -36 -74 0 -11 -10 -40 -22 -65 -18 -36 -22 -63
-23 -135 0 -49 -4 -96 -9 -104 -7 -11 -35 -12 -149 -7 -76 4 -146 10 -154 13
-21 8 -13 37 41 169 26 64 48 135 52 170 4 32 13 66 20 74 7 8 20 48 28 89 9
41 31 100 51 136 21 38 35 77 35 98 0 46 23 119 49 155 11 16 28 59 36 95 15
64 39 137 104 315 34 92 39 133 16 152 -18 15 -20 37 -2 43 6 2 54 5 104 6 74
2 102 -2 137 -18z m1513 -20 c29 -14 54 -18 84 -14 39 6 44 4 80 -37 25 -27
39 -53 39 -70 0 -16 11 -37 30 -55 17 -16 30 -36 30 -46 0 -9 7 -33 15 -52 24
-58 19 -70 -42 -115 -68 -50 -64 -53 17 -12 l60 30 10 -25 c6 -15 10 -32 10
-40 0 -8 4 -16 9 -19 28 -18 91 -199 91 -264 0 -29 8 -55 25 -80 16 -24 25
-50 25 -77 0 -28 6 -46 20 -58 24 -20 26 -50 5 -67 -22 -19 -18 -28 10 -22 22
4 25 1 25 -24 0 -19 -9 -36 -27 -51 l-28 -23 29 10 c41 15 52 8 60 -40 3 -23
29 -86 57 -141 l50 -101 -19 -31 -18 -32 -126 -1 c-68 -1 -137 -4 -151 -8 -29
-7 -84 12 -104 35 -9 11 -7 23 7 54 27 55 25 71 -10 92 -32 18 -50 62 -50 120
0 59 -18 63 -257 63 -135 0 -221 -4 -237 -11 -24 -11 -35 -35 -36 -74 0 -11
-10 -40 -22 -65 -18 -36 -22 -63 -23 -135 0 -49 -4 -96 -9 -104 -7 -11 -35
-12 -150 -7 -77 4 -148 12 -158 17 -17 9 -17 12 -2 47 60 137 97 243 101 291
3 31 12 63 19 71 7 8 19 47 28 87 8 39 31 102 50 139 23 42 36 81 36 104 0 45
22 111 50 150 11 15 27 57 35 93 15 64 39 137 104 315 34 92 39 133 16 152
-18 15 -19 37 -2 43 6 3 55 6 107 6 73 0 105 -4 137 -18z m3914 -723 c32 -18
43 -33 69 -97 16 -42 37 -112 45 -156 15 -77 15 -80 -5 -105 -11 -14 -36 -51
-56 -82 l-36 -57 -47 5 c-65 8 -99 23 -107 47 -5 17 -10 13 -25 -28 -20 -52
-52 -90 -109 -130 -38 -27 -90 -119 -123 -219 -13 -42 -14 -53 -3 -75 8 -14
16 -50 18 -79 7 -70 -8 -87 -70 -78 -24 3 -48 9 -54 12 -5 3 -42 7 -82 9 -77
3 -136 25 -136 51 0 9 9 18 20 21 11 3 33 26 47 52 40 68 88 133 117 158 14
13 26 33 26 46 0 12 7 32 15 44 20 29 22 97 5 214 l-14 96 36 49 c20 27 46 58
57 68 13 11 21 32 21 50 0 39 31 107 61 135 82 78 238 101 330 49z m144 -123
c30 -47 60 -85 67 -86 7 -1 28 0 46 1 23 1 32 -3 32 -14 0 -9 -8 -16 -19 -16
-10 0 -42 -16 -70 -35 -28 -20 -51 -34 -51 -32 0 32 -29 136 -51 185 -25 56
-29 82 -13 82 2 0 29 -38 59 -85z m445 -92 c120 -32 232 -119 280 -216 32 -67
60 -176 60 -243 0 -36 -5 -47 -35 -73 -32 -28 -77 -40 -110 -30 -5 1 -55 6
-110 9 -63 4 -113 13 -134 23 -45 23 -62 21 -33 -3 13 -11 39 -22 58 -26 43
-8 56 -28 86 -127 21 -75 22 -80 5 -92 -18 -13 -143 -35 -198 -35 -52 0 -67
15 -74 74 -5 40 -3 61 9 84 21 42 20 96 -4 165 -26 73 -26 107 -2 107 19 0 94
-49 107 -70 12 -19 81 -58 124 -70 60 -16 75 0 15 18 -49 14 -88 39 -155 98
-20 17 -51 35 -68 39 -27 6 -31 11 -30 38 1 75 16 138 37 160 12 13 22 33 22
44 0 12 9 51 20 87 23 74 13 71 130 39z m-228 -320 c-2 -32 -9 -64 -15 -71 -6
-8 -10 -32 -8 -54 1 -22 -5 -50 -13 -62 -16 -26 -116 -59 -161 -54 -27 3 -30
7 -33 42 -6 68 3 82 79 127 39 23 89 62 112 85 23 24 42 44 43 44 0 0 -1 -26
-4 -57z"/>
<path d="M1905 4433 c-38 -10 -37 -21 1 -32 48 -13 70 -13 113 3 23 8 31 15
23 20 -16 10 -111 16 -137 9z"/>
<path d="M2192 4430 c-34 -4 -65 -9 -67 -12 -12 -12 140 -29 198 -23 97 10
107 15 68 31 -35 15 -95 16 -199 4z"/>
<path d="M2595 4394 c99 -20 194 -28 174 -15 -21 14 -133 31 -194 30 l-50 -1
70 -14z"/>
<path d="M2137 4303 c-10 -9 3 -221 15 -260 10 -35 27 -44 29 -15 3 69 -4 239
-12 258 -9 24 -20 30 -32 17z"/>
<path d="M2176 3928 c-3 -13 -6 -44 -6 -70 0 -26 -5 -50 -11 -54 -8 -5 -9 -52
-3 -173 5 -91 8 -208 8 -260 -1 -101 9 -102 25 -1 14 84 26 472 17 533 -8 51
-20 61 -30 25z"/>
<path d="M2139 3136 c-2 -10 -1 -73 2 -140 4 -86 2 -132 -7 -158 -9 -25 -9
-40 -3 -44 12 -7 12 -7 31 31 13 25 14 50 6 150 -10 129 -22 194 -29 161z"/>
<path d="M7383 4253 c-13 -2 -23 -8 -23 -12 0 -9 253 -20 300 -13 53 8 32 17
-37 17 -38 1 -102 3 -143 7 -41 3 -85 3 -97 1z"/>
<path d="M5993 4193 c4 -27 11 -70 16 -98 17 -89 13 -219 -9 -285 -18 -54 -19
-78 -15 -292 3 -128 9 -253 14 -278 6 -25 11 -94 12 -155 1 -94 2 -104 11 -70
13 52 1 290 -18 374 -11 47 -12 72 -4 100 28 99 42 576 19 663 -15 56 0 76 59
81 38 3 34 4 -22 5 l-69 2 6 -47z"/>
<path d="M6430 4210 c89 -30 120 -36 120 -21 0 12 -45 29 -109 41 -94 18 -99
9 -11 -20z"/>
<path d="M7857 4176 c-9 -14 -37 -39 -62 -56 -25 -17 -45 -36 -45 -43 0 -25
-88 -227 -119 -272 -45 -66 -71 -121 -71 -147 -1 -29 -32 -99 -64 -141 -28
-36 -60 -106 -52 -114 17 -18 203 312 232 412 9 33 22 69 29 80 7 11 27 62 46
113 18 50 39 92 46 92 14 0 88 88 81 96 -3 2 -13 -7 -21 -20z"/>
<path d="M6170 4143 c-31 -22 -25 -49 12 -59 40 -12 60 -63 38 -97 -9 -15 -13
-55 -12 -132 1 -60 -2 -137 -7 -169 -11 -76 -6 -90 34 -112 32 -17 33 -17 76
8 62 37 122 86 136 112 6 12 17 67 24 123 16 130 2 227 -39 266 -40 37 -62 45
-156 60 -73 12 -88 12 -106 0z"/>
<path d="M6586 4096 c3 -8 -2 -16 -13 -19 -12 -3 -9 -5 9 -6 49 -2 62 -37 55
-147 -5 -84 -9 -102 -42 -162 -20 -37 -47 -78 -58 -91 -35 -38 -130 -108 -179
-132 -44 -21 -45 -22 -27 -40 11 -11 19 -25 19 -33 0 -7 7 -20 16 -27 9 -7 26
-36 38 -64 13 -27 30 -56 39 -63 9 -8 21 -30 28 -49 6 -20 22 -51 35 -71 13
-19 24 -39 24 -43 0 -5 4 -9 9 -9 5 0 12 26 16 58 4 36 14 65 28 80 11 12 16
22 10 22 -5 0 -20 -11 -33 -25 -13 -14 -29 -25 -35 -25 -18 0 -61 51 -100 120
-20 36 -44 78 -53 93 -19 32 -28 21 117 145 117 101 153 171 177 335 8 56 -15
128 -49 152 -27 19 -38 19 -31 1z"/>
<path d="M7326 3248 c-13 -18 -48 -71 -77 -118 -29 -47 -70 -109 -91 -138 -22
-30 -38 -56 -35 -58 15 -15 55 33 109 131 34 61 76 134 94 163 38 58 38 69 0
20z"/>
<path d="M7430 2920 c-19 -5 -57 -12 -85 -16 -28 -4 -41 -9 -31 -12 11 -2 67
3 125 13 96 15 120 15 256 2 142 -13 153 -13 205 5 l55 18 -60 -7 c-33 -4 -78
-6 -100 -5 -22 0 -105 3 -185 6 -80 3 -161 1 -180 -4z"/>
<path d="M8005 2919 c28 -4 62 -11 78 -14 21 -6 27 -4 27 9 0 13 -12 16 -77
15 -76 -2 -77 -2 -28 -10z"/>
<path d="M10864 4135 c-3 -13 1 -46 10 -72 9 -25 16 -58 16 -71 0 -14 3 -22 6
-19 12 11 14 148 3 168 -13 26 -27 24 -35 -6z"/>
<path d="M9870 4135 c-10 -12 -10 -18 0 -30 8 -9 10 -32 6 -62 -3 -26 -2 -122
3 -213 l8 -165 2 175 c1 96 5 181 9 188 6 9 34 -20 92 -93 80 -100 114 -137
72 -77 -11 15 -26 43 -34 62 -9 20 -36 61 -60 91 -58 71 -68 91 -61 117 6 26
-18 30 -37 7z"/>
<path d="M10872 3878 c-10 -37 -7 -691 3 -805 8 -83 -2 -95 -52 -70 -46 24
-220 223 -310 353 -111 162 -143 200 -180 219 -20 9 -33 24 -33 35 0 22 -92
138 -98 122 -6 -18 76 -131 169 -232 49 -52 114 -131 146 -175 32 -45 85 -112
118 -150 78 -91 227 -235 242 -235 22 0 26 70 14 239 -6 91 -10 293 -8 449 2
155 2 282 1 282 -2 0 -7 -15 -12 -32z"/>
<path d="M9877 3490 c-10 -106 -6 -566 5 -516 4 21 7 163 6 315 -2 198 -5 255
-11 201z"/>
<path d="M3299 4156 c10 -12 7 -18 -13 -31 -14 -10 -26 -25 -26 -34 1 -14 2
-14 11 2 14 24 65 23 79 -2 14 -28 13 -30 -16 -42 -15 -5 -24 -12 -21 -15 3
-3 15 -1 27 6 19 10 23 6 52 -57 93 -206 110 -259 87 -275 -10 -7 -8 -8 8 -3
18 5 23 0 33 -29 6 -20 16 -38 21 -42 6 -3 3 11 -7 33 -9 21 -31 81 -49 133
-17 52 -41 113 -52 135 -11 22 -26 58 -33 79 -12 37 -11 40 11 57 l24 18 -37
-6 -37 -5 -12 46 c-10 39 -15 46 -36 46 -21 0 -23 -3 -14 -14z"/>
<path d="M3251 3993 c0 -12 -14 -32 -31 -45 -20 -15 -30 -30 -30 -49 0 -14 -7
-45 -15 -69 -11 -30 -11 -40 -2 -37 11 3 18 23 31 89 4 14 18 40 32 57 16 20
24 39 21 53 l-4 23 -2 -22z"/>
<path d="M3283 3889 c-29 -37 -43 -82 -43 -137 0 -48 -6 -72 -31 -118 -18 -33
-38 -71 -46 -86 -8 -16 -12 -36 -9 -45 12 -36 47 -46 186 -53 113 -6 138 -5
153 8 23 21 22 29 -13 69 -45 51 -130 231 -130 276 0 46 -49 108 -67 86z"/>
<path d="M3582 3565 c21 -42 52 -180 45 -199 -9 -23 -54 -38 -92 -30 -19 3
-43 1 -56 -7 -14 -7 -63 -13 -121 -13 -85 -1 -120 -7 -107 -20 8 -8 312 13
345 24 43 14 54 7 54 -35 0 -19 4 -37 10 -40 13 -8 90 -169 90 -188 0 -8 -10
-22 -22 -31 l-23 -17 24 12 c20 10 27 9 38 -7 7 -10 13 -28 13 -41 0 -37 28
-27 39 15 14 49 14 49 -13 56 -19 5 -34 30 -75 119 -30 68 -51 128 -51 149 0
20 -9 57 -21 83 -13 30 -19 60 -17 83 4 31 -1 41 -35 76 -37 38 -39 39 -25 11z"/>
<path d="M3043 3511 c-7 -21 -15 -58 -19 -82 -4 -25 -24 -68 -51 -106 -23 -35
-47 -82 -53 -106 -11 -50 -41 -126 -69 -182 -26 -49 -28 -73 -5 -54 23 19 40
55 79 175 20 60 51 136 70 170 42 78 82 201 69 214 -6 6 -14 -4 -21 -29z"/>
<path d="M4809 4136 c10 -12 7 -18 -13 -31 -14 -10 -26 -25 -26 -34 1 -14 2
-14 11 2 14 24 65 23 79 -2 14 -28 13 -30 -16 -42 -15 -5 -24 -12 -21 -15 3
-3 15 -1 27 6 19 10 23 6 52 -57 93 -206 110 -259 87 -275 -10 -7 -8 -8 7 -3
17 4 24 -2 37 -37 9 -23 19 -39 23 -36 3 3 -3 23 -14 45 -11 21 -32 76 -47
123 -15 47 -38 105 -50 130 -12 25 -28 63 -35 84 -12 37 -11 40 11 57 l24 18
-37 -6 -37 -5 -12 46 c-10 39 -15 46 -36 46 -21 0 -23 -3 -14 -14z"/>
<path d="M4761 3978 c0 -18 -12 -35 -31 -50 -20 -15 -30 -30 -30 -49 0 -14 -7
-45 -15 -69 -11 -30 -11 -40 -2 -37 11 3 18 23 31 89 4 14 18 40 32 57 18 21
24 39 21 58 l-4 28 -2 -27z"/>
<path d="M4792 3868 c-24 -30 -42 -89 -42 -142 0 -41 -7 -67 -31 -112 -18 -33
-38 -71 -46 -86 -17 -33 -10 -64 20 -80 12 -6 83 -15 157 -18 113 -6 138 -5
153 8 23 21 22 29 -13 69 -45 51 -130 231 -130 276 0 47 -48 108 -68 85z"/>
<path d="M5092 3545 c21 -42 52 -180 45 -199 -9 -23 -50 -36 -90 -29 -20 3
-44 0 -58 -8 -14 -7 -62 -13 -121 -13 -86 -1 -120 -7 -107 -20 9 -9 331 15
351 25 31 16 48 4 48 -35 0 -19 4 -38 10 -41 13 -8 90 -167 90 -187 0 -8 -10
-23 -22 -32 l-23 -17 24 12 c20 10 27 9 38 -7 7 -10 13 -28 13 -41 0 -37 28
-27 39 15 14 49 14 49 -13 56 -19 5 -34 30 -75 119 -30 68 -51 128 -51 149 0
20 -9 57 -21 83 -13 30 -19 60 -17 83 4 31 -1 41 -35 76 -37 38 -39 39 -25 11z"/>
<path d="M4551 3488 c-6 -18 -13 -53 -17 -77 -4 -28 -23 -68 -50 -107 -24 -35
-46 -76 -50 -91 -10 -45 -51 -155 -73 -198 -26 -49 -28 -74 -5 -54 23 19 40
55 79 175 20 60 50 134 67 164 30 55 78 182 78 207 0 25 -19 13 -29 -19z"/>
</g>
</svg>
